<svg id="Layer_1" data-name="Layer 1" xmlns="http://www.w3.org/2000/svg" viewBox="0 0 598.7 644.6"><defs><style>.cls-1{fill:#fff;}</style></defs><title>Allocation</title><path class="cls-1" d="M626.3,303.9H557.2V276.6c26.7-9.5,46.1-34.9,46.1-64.8a69.18,69.18,0,0,0-69.1-69.1,23,23,0,1,1,23-23,23,23,0,0,0,46,0,68.83,68.83,0,0,0-46.1-64.8V50.7a23,23,0,0,0-46,0v4.2C484.4,64.4,465,89.8,465,119.7a69.18,69.18,0,0,0,69.1,69.1,23,23,0,1,1-23,23,23,23,0,0,0-46,0,68.83,68.83,0,0,0,46.1,64.8v27.3H373V276.6c26.7-9.5,46.1-34.9,46.1-64.8A69.18,69.18,0,0,0,350,142.7a23,23,0,1,1,23-23,23,23,0,0,0,46,0,68.83,68.83,0,0,0-46.1-64.8V50.7a23,23,0,1,0-46,0v4.2c-26.7,9.5-46.1,34.9-46.1,64.8a69.18,69.18,0,0,0,69.1,69.1,23,23,0,1,1-23,23,23,23,0,0,0-46,0A68.83,68.83,0,0,0,327,276.6v27.3H188.8V276.6c26.7-9.5,46.1-34.9,46.1-64.8a69.18,69.18,0,0,0-69.1-69.1,23,23,0,1,1,23-23,23,23,0,0,0,46,0,68.83,68.83,0,0,0-46.1-64.8V50.7a23,23,0,0,0-46,0v4.2C116,64.4,96.6,89.8,96.6,119.7a69.18,69.18,0,0,0,69.1,69.1,23,23,0,1,1-23,23,23,23,0,1,0-46,0,68.83,68.83,0,0,0,46.1,64.8v27.3H73.7a23,23,0,0,0-23,23V649.3a23,23,0,0,0,23,23H626.4a23,23,0,0,0,23-23V327A23.11,23.11,0,0,0,626.3,303.9ZM96.7,488.2h46.1v46.1H96.7Zm92.1,0h46.1v46.1H188.8V488.2Zm92.1,0H327v46.1H280.9Zm92.1,0h46.1v46.1H373Zm92.1,0h46.1v46.1H465.1Zm92.1,0h46.1v46.1H557.2ZM603.3,350v92.1H557.2V350Zm-92.1,0v92.1H373V350ZM327,350v92.1H188.8V350ZM96.7,350h46.1v92.1H96.7Zm0,276.3V580.2h46.1v46.1Zm92.1,0V580.2h46.1v46.1Zm92.1,0V580.2H327v46.1Zm92.1,0V580.2h46.1v46.1Zm92.1,0V580.2h46.1v46.1Zm138.2,0H557.2V580.2h46.1Z" transform="translate(-50.7 -27.7)"/></svg>