<svg xmlns="http://www.w3.org/2000/svg" width="254.675" height="230.797" viewBox="0 0 254.675 230.797">
  <g id="Group_40" data-name="Group 40" transform="translate(-70.001 -26.25)">
    <path id="Path_259" data-name="Path 259" d="M226.73,129.711a51.79,51.79,0,1,0-36.561-15.169,51.731,51.731,0,0,0,36.561,15.169Z" transform="translate(-57.249)" fill="#fff"/>
    <path id="Path_260" data-name="Path 260" d="M173.461,338.9V298.866l18.607-17.056v0a4.019,4.019,0,0,0,.792-1.005l10.815-19.528a19.84,19.84,0,0,0,5.006,1.986l7.9,1.9v0a70.36,70.36,0,0,1,8.086-6.244l-14.126-3.389a13.124,13.124,0,0,1-8.1-6.168,60.068,60.068,0,0,1-6.888,3.951,22.823,22.823,0,0,0,1.924,2.73l-11.268,20.346-16.729,15.335-16.729-15.335-11.268-20.346a22.425,22.425,0,0,0,1.924-2.73,60.1,60.1,0,0,1-6.888-3.951,13.113,13.113,0,0,1-8.1,6.168L90.9,264.532a17.328,17.328,0,0,0-12.84,14.786l-8.024,63.059a3.978,3.978,0,0,0,3.947,4.482H200.088A69.271,69.271,0,0,1,196.9,338.9Zm-7.959,0H78.5l7.456-58.575a9.337,9.337,0,0,1,6.8-8.053l37.529-9a19.857,19.857,0,0,0,5-1.986L146.1,280.809a4.059,4.059,0,0,0,.792,1.005L165.5,298.87Z" transform="translate(0 -121.644)" fill="#fff"/>
    <path id="Path_261" data-name="Path 261" d="M420.434,262.5a61.751,61.751,0,1,0,43.592,18.086A61.683,61.683,0,0,0,420.434,262.5ZM453.1,305.1l-43.656,43.772a3.98,3.98,0,0,1-5.635,0l-20.012-20.061a3.98,3.98,0,0,1,5.635-5.622l17.195,17.239,40.839-40.947A3.979,3.979,0,0,1,453.1,305.1Z" transform="translate(-157.437 -128.81)" fill="#fff"/>
  </g>
</svg>
