<svg xmlns="http://www.w3.org/2000/svg" width="145.094" height="305.824" viewBox="0 0 145.094 305.824">
  <g id="noun-employe-1658886" transform="translate(-239.294 -46.67)">
    <path id="Path_1" data-name="Path 1" d="M326.569,252.8h-1.293l-.049,115.1-13.383,39.369L298.4,367.565V252.8h-1.27a57.9,57.9,0,0,0-57.836,57.828l0,112.908H384.388V310.631a57.889,57.889,0,0,0-57.82-57.826Zm46.017,86.6h-29.4v-2.091h29.391V339.4Z" transform="translate(0 -71.045)" fill="#fff"/>
    <path id="Path_2" data-name="Path 2" d="M332.68,367.392l11.353,33.386,11.348-33.386V252.8h-22.7Z" transform="translate(-32.186 -71.045)" fill="#fff"/>
    <path id="Path_3" data-name="Path 3" d="M317.506,170.214a61.772,61.772,0,1,0-61.783-61.764,61.843,61.843,0,0,0,61.783,61.764Z" transform="translate(-5.663)" fill="#fff"/>
  </g>
</svg>
