<svg xmlns="http://www.w3.org/2000/svg" width="191.034" height="238" viewBox="0 0 191.034 238">
  <g id="noun-one-4070735" transform="translate(-160.337 -43.793)">
    <path id="Path_250" data-name="Path 250" d="M332.684,124.621h-7.025a18.707,18.707,0,0,0-11.284,3.838A18.734,18.734,0,0,0,296.712,115.9h-6.969a18.624,18.624,0,0,0-12.414,4.57,18.7,18.7,0,0,0-16.7-10.353h-7.053A18.872,18.872,0,0,0,243.3,113.2v-50.3a3.717,3.717,0,0,0,0-.958,20.509,20.509,0,0,0-20.482-18.14H219.41a20.481,20.481,0,0,0-20.6,20.256v58.511a20.643,20.643,0,0,0-17.434-5.811l-3.245.451a20.459,20.459,0,0,0-13.683,8.011,19.749,19.749,0,0,0-3.893,15.01l2.369,16.73c1.1,7.984,2.145,12.949,3.216,18.2.789,3.865,1.635,7.815,2.568,13.4,2.822,15.913,7.25,36.478,18.282,54.31,15.291,24.714,43.5,38.932,74.96,38.932a109.449,109.449,0,0,0,20.567-1.974,85.209,85.209,0,0,0,45.706-23.7c18.056-18.79,22.571-40.542,23.136-67.116h0a2.8,2.8,0,0,0,0-.48v-45.14a18.764,18.764,0,0,0-18.676-18.763Zm-7.025,8.464h7.025a10.274,10.274,0,0,1,10.269,10.269v30.724a10.274,10.274,0,0,1-10.269,10.271h-7.025a10.27,10.27,0,0,1-10.269-10.271V143.354a10.27,10.27,0,0,1,10.269-10.269Zm-35.915-8.718H296.8a10.272,10.272,0,0,1,10.129,10.214v39.5a10.273,10.273,0,0,1-10.269,10.271h-6.914a10.267,10.267,0,0,1-10.381-10.271v-39.5a10.267,10.267,0,0,1,10.381-10.214Zm-36.028-5.642h7.053A10.3,10.3,0,0,1,270.9,128.939v45.139a10.3,10.3,0,0,1-10.271,10.271h-7.053A10.3,10.3,0,0,1,243.3,174.078V128.939a10.3,10.3,0,0,1,10.269-10.3ZM219.409,52.259h3.3A11.988,11.988,0,0,1,234.84,64.051V174.28a53.618,53.618,0,0,0-25.814-7.929l-1.777-13.457V64.054a11.988,11.988,0,0,1,12.16-11.792Zm102.695,198A76.445,76.445,0,0,1,280.912,271.5c-35.915,6.969-69.938-6.095-86.724-33.18-10.269-16.588-14.473-36.028-17.125-51.262-.958-5.642-1.807-9.791-2.623-13.711-1.1-5.333-2.06-9.93-3.131-17.661l-2.369-16.759h0a11.553,11.553,0,0,1,2.257-8.464,12.14,12.14,0,0,1,8.1-4.741l3.243-.563a12.242,12.242,0,0,1,13.233,8.21.87.87,0,0,1,0-.226v.226a1.621,1.621,0,0,0,0,.339v.028a9.758,9.758,0,0,1,.423,1.72,5.623,5.623,0,0,0,.169.649l2.173,15.856,2.539,18.93a4.233,4.233,0,0,0,4.176,3.668h1.185a44.8,44.8,0,0,1,45.141,44.323,4.231,4.231,0,1,0,8.462,0,51.816,51.816,0,0,0-6.969-26.154h7.646a18.7,18.7,0,0,0,14.5-6.882,18.6,18.6,0,0,0,14.53,6.912H296.8a18.708,18.708,0,0,0,14.5-6.884,18.7,18.7,0,0,0,14.5,6.884h7.024a18.589,18.589,0,0,0,10.186-3.046c-.677,24.176-4.91,43.927-20.906,60.547Z" transform="translate(0 0)" fill="#fff"/>
  </g>
</svg>
