<svg id="Layer_1" data-name="Layer 1" xmlns="http://www.w3.org/2000/svg" viewBox="0 0 923.92 924.89"><defs><style>.cls-1{fill:#fff;}</style></defs><title>Expanses Icon</title><path class="cls-1" d="M739.15,300.22a14.11,14.11,0,0,0,20.42,0L870.39,189.39l31.11,30.14c14.58,14.58,39.86,5.83,42.78-14.58l17.49-139a25.18,25.18,0,0,0-28.18-28.19l-139,18.46C774.14,59.12,765.4,84.39,780,99l31.12,31.11L700.26,240a14.1,14.1,0,0,0,0,20.41Z" transform="translate(-38.04 -37.56)"/><path class="cls-1" d="M260.85,700.75a14.09,14.09,0,0,0-20.42,0L129.61,811.57,99.48,781.44C84.9,766.86,59.62,775.61,56.7,796L38.23,934.07a25.18,25.18,0,0,0,28.19,28.19l139-17.5C225.85,941.85,234.6,916.57,220,902l-31.1-31.12L298.77,761a14.11,14.11,0,0,0,0-20.42Z" transform="translate(-38.04 -37.56)"/><path class="cls-1" d="M901.5,780.46l-31.11,31.11L760.53,700.74a14.11,14.11,0,0,0-20.42,0l-38.88,38.89a14.1,14.1,0,0,0,0,20.41L811.09,870.87,780,901c-14.58,14.58-5.84,39.86,14.57,42.77l139,17.5a25.18,25.18,0,0,0,28.19-28.19l-17.5-139c-2.91-19.44-28.18-28.19-42.76-13.61Z" transform="translate(-38.04 -37.56)"/><path class="cls-1" d="M98.5,220.5l30.13-31.11L238.49,299.24a14.09,14.09,0,0,0,20.42,0l38.88-38.88a14.11,14.11,0,0,0,0-20.42L188.91,130.09,220,100c14.58-14.58,5.84-39.86-14.58-42.78l-139-18.47A25.17,25.17,0,0,0,38.23,66.9l17.49,139c2.92,20.42,28.2,29.18,42.78,14.59Z" transform="translate(-38.04 -37.56)"/><path class="cls-1" d="M500,256.47a244,244,0,1,0,244,244A243.54,243.54,0,0,0,500,256.47Zm22.36,361.64v27.22a8.71,8.71,0,0,1-8.75,8.75H485.42a8.71,8.71,0,0,1-8.75-8.75V620.06a62.12,62.12,0,0,1-55.41-55.42,18.13,18.13,0,0,1,1.94-6.81,8.85,8.85,0,0,1,6.81-2.91h29.17a9.34,9.34,0,0,1,8.75,6.81c1.94,7.77,8.74,13.61,16.52,13.61h25.28c13.61,0,25.27-9.73,27.22-22.36a23.06,23.06,0,0,0-6.81-19.44c-4.86-4.86-11.67-8.75-18.47-8.75H493.19c-37.91,0-70-28.19-73.88-64.16a70.19,70.19,0,0,1,58.33-76.8V357.58a8.72,8.72,0,0,1,8.75-8.75h28.19a8.72,8.72,0,0,1,8.75,8.75v25.27a62.12,62.12,0,0,1,55.41,55.42,18.08,18.08,0,0,1-1.94,6.81A8.85,8.85,0,0,1,570,448H540.82a9.32,9.32,0,0,1-8.74-6.81c-2-7.77-8.75-13.61-16.53-13.61H490.28c-13.61,0-25.28,9.73-27.22,22.36-1,6.81,1.94,14.58,6.8,19.44s11.67,8.75,18.48,8.75h21.38c20.42,0,38.89,8.75,52.5,23.34a69.42,69.42,0,0,1,18.47,54.43c-2,30.14-26.25,55.41-58.33,62.22Z" transform="translate(-38.04 -37.56)"/></svg>