<svg xmlns="http://www.w3.org/2000/svg" width="272.387" height="272.34" viewBox="0 0 272.387 272.34">
  <g id="noun-hiring-2421554" transform="translate(-105.004 -34.99)">
    <path id="Path_6" data-name="Path 6" d="M370.392,264.058l-44.5-44.5a14.682,14.682,0,0,0-17.281-2.594l-9.791-9.791A108.592,108.592,0,0,0,320.409,142.7a107.068,107.068,0,0,0-97.42-107.167,98.511,98.511,0,0,0-10.281-.538,107.7,107.7,0,0,0,0,215.408,70.969,70.969,0,0,0,10.379-.49,106.873,106.873,0,0,0,54.194-21l9.791,9.791a14.681,14.681,0,0,0,2.594,17.233l44.5,44.5h0a25.7,25.7,0,0,0,36.325-36.326ZM124.584,142.7a88.115,88.115,0,1,1,31.083,67.168A88.107,88.107,0,0,1,124.584,142.7Z" fill="#fff"/>
    <path id="Path_7" data-name="Path 7" d="M257.736,255.809h.979l3.28-.343a77.772,77.772,0,0,0,19.093-4.9l2.741-1.126,3.23-1.567,2.594-1.322h0a78.279,78.279,0,0,0,11.358-7.881l1.762-1.421a77.878,77.878,0,0,0,7.1-6.854,58.75,58.75,0,0,0-37.009-44.06,39.165,39.165,0,1,0-41.465,0,58.752,58.752,0,0,0-37.06,44.06,78.384,78.384,0,0,0,7.1,6.854l1.762,1.421h0a78.149,78.149,0,0,0,11.26,7.343l2.594,1.322,3.23,1.567,2.741,1.126h0a77.772,77.772,0,0,0,19.093,4.9l3.28.343h.979a66.129,66.129,0,0,0,11.356,0Zm-10.573-14.687V206.853a4.9,4.9,0,1,1,0-9.791h9.791a4.9,4.9,0,0,1,0,9.791v34.269a4.9,4.9,0,1,1-9.791,0Z" transform="translate(-39.353 -34.781)" fill="#fff"/>
  </g>
</svg>
