<svg xmlns="http://www.w3.org/2000/svg" width="245.116" height="271.917" viewBox="0 0 245.116 271.917">
  <g id="Group_41" data-name="Group 41" transform="translate(-10519.325 -2565.25)">
    <path id="Path_263" data-name="Path 263" d="M378.757,299.089a40.843,40.843,0,1,0,1.167,31.483,41.168,41.168,0,0,0-1.167-31.483ZM330.118,346a31.934,31.934,0,1,1,24.428-.825,31.942,31.942,0,0,1-24.428.825Z" transform="translate(10312.377 2420.609)" fill="#fff"/>
    <path id="Path_264" data-name="Path 264" d="M377.554,311.276a4.584,4.584,0,0,0-6.028,2.384L360.358,339.4l-9.491-5.5a4.584,4.584,0,1,0-4.585,7.931l13.946,8.078a4.6,4.6,0,0,0,2.292.618,4.675,4.675,0,0,0,1.435-.229,4.583,4.583,0,0,0,2.751-2.536L379.921,317.3v0a4.588,4.588,0,0,0-2.366-6.026Z" transform="translate(10291.563 2403.476)" fill="#fff"/>
    <path id="Path_265" data-name="Path 265" d="M363.924,266.643a19.949,19.949,0,0,0-17.725-8.875l-7.731-11.435,1.095-.747h0a4.587,4.587,0,0,0,1.228-6.367l-3.952-5.841,9.486-6.419a15.387,15.387,0,0,0,4.071-21.374l-4.851-7.18a4.584,4.584,0,0,0-6.378-1.228l-12.96,8.793L305.58,30.342h0a4.584,4.584,0,0,0-5.088-4.02L126.366,46.769a4.583,4.583,0,0,0-4.016,5.084l27.463,234.154h0a4.584,4.584,0,0,0,4.554,4.053,4.284,4.284,0,0,0,.536-.033l173.882-20.435v0a20.242,20.242,0,1,0,35.143-2.954ZM330.63,240.561l-1.072.733h-.027l-5.96,4.071-5.923,4.038-1.4-2.063,1.3-.88,10.131-6.85,0,0a3.517,3.517,0,0,0,.28-.215l1.3-.88Zm9.9-33.239,2.292,3.383a6.221,6.221,0,0,1,.976,4.673,6.119,6.119,0,0,1-2.608,3.969l-13.208,8.962-.074.033-5.364,3.635-.027.023L307.3,242.329l-13.241,9,0,0a6.15,6.15,0,0,1-4.656.958,6.263,6.263,0,0,1-4-2.64l-2.292-3.383,42.028-28.47c.045-.027.078-.074.123-.106ZM158.383,280.389,131.988,55.341l165.048-19.4,20.631,175.8L274.14,241.26l0,0a4.588,4.588,0,0,0-1.216,6.378l4.906,7.176a15.339,15.339,0,0,0,9.835,6.486,15.66,15.66,0,0,0,2.947.28h.151a15.536,15.536,0,0,0,2.628-.274c.237-.045.458-.106.714-.166a14.41,14.41,0,0,0,1.975-.614c.233-.092.458-.17.7-.274v0a14.991,14.991,0,0,0,2.429-1.32l9.458-6.419,3.989,5.86a4.462,4.462,0,0,0,1.169,1.142c.092.063.178.129.274.188h0a4.594,4.594,0,0,0,1.408.563.783.783,0,0,1,.274.033,4.594,4.594,0,0,0,.669.082,5.373,5.373,0,0,0,.573-.086,3.947,3.947,0,0,0,.491-.074,4.516,4.516,0,0,0,1.508-.632l2.03-1.375,1.94,2.857Zm199.682-.3a10.9,10.9,0,0,1-4.658,7.047,11.053,11.053,0,0,1-15.422-15.263,4.581,4.581,0,0,0-.029-5.107L330.6,255.92l-1.963-2.892,2.26-1.541,9.307,13.754h0a4.621,4.621,0,0,0,4.769,1.912,10.868,10.868,0,0,1,11.365,4.611,11.091,11.091,0,0,1,1.727,8.326Z" transform="translate(10397.007 2538.959)" fill="#fff"/>
    <path id="Path_266" data-name="Path 266" d="M179.527,131.75,305.9,117.2v0a4.585,4.585,0,0,0-1.05-9.11L178.482,122.64a4.585,4.585,0,0,0,.518,9.139,5.068,5.068,0,0,0,.528-.029Z" transform="translate(10372.196 2500.033)" fill="#fff"/>
    <path id="Path_267" data-name="Path 267" d="M184.872,178.152,311.242,163.61a4.585,4.585,0,1,0-1.05-9.106L183.822,169.046a4.584,4.584,0,0,0,.518,9.137,3.87,3.87,0,0,0,.532-.031Z" transform="translate(10369.653 2477.948)" fill="#fff"/>
    <path id="Path_268" data-name="Path 268" d="M190.216,226.331l109.435-12.593a4.585,4.585,0,1,0-1.046-9.106L189.17,217.225a4.585,4.585,0,0,0,.514,9.139,4.2,4.2,0,0,0,.532-.033Z" transform="translate(10367.107 2454.085)" fill="#fff"/>
    <path id="Path_269" data-name="Path 269" d="M264.145,264.931a4.583,4.583,0,0,0-5.08-4.03l-64.6,7.432h0a4.585,4.585,0,0,0,.518,9.143,4.094,4.094,0,0,0,.526-.033l64.6-7.432a4.583,4.583,0,0,0,4.03-5.08Z" transform="translate(10364.605 2427.29)" fill="#fff"/>
  </g>
</svg>
