<svg xmlns="http://www.w3.org/2000/svg" width="229.868" height="447.945" viewBox="0 0 229.868 447.945">
  <g id="noun-finger-print-3674250" transform="translate(-235.038 -56.001)">
    <path id="Path_1" data-name="Path 1" d="M417.31,158.03a84.63,84.63,0,0,1-11.367,37.633,218.8,218.8,0,0,0,4.367-42.84,76.289,76.289,0,0,0-5.375-28.449,5.677,5.677,0,1,0-10.527,4.254A65.288,65.288,0,0,1,399,152.874a206.621,206.621,0,0,1-10.414,65.016c-.055.223-.055.5-.113.727a8.7,8.7,0,0,0-.168,1.176,6.171,6.171,0,0,0,.168,1.063,9.429,9.429,0,0,0,.281,1.063,5.942,5.942,0,0,0,.617,1.008,6.072,6.072,0,0,0,.391.617c.055.055.168.113.223.168a5.031,5.031,0,0,0,1.063.727,4.73,4.73,0,0,0,.895.5.3.3,0,0,0,.223.113,5.032,5.032,0,0,0,1.793.281,5.464,5.464,0,0,0,1.9-.336,4.667,4.667,0,0,0,.559-.281,6.016,6.016,0,0,0,1.176-.727,1.181,1.181,0,0,1,.281-.168,95.9,95.9,0,0,0,30.855-65.129,5.651,5.651,0,0,0-5.32-5.992,5.736,5.736,0,0,0-6.1,5.328Z" fill="#fff"/>
    <path id="Path_2" data-name="Path 2" d="M371.79,240.57l.895-1.344a198.8,198.8,0,0,0,19.434-86.352A60.286,60.286,0,0,0,372.8,108.8a59.328,59.328,0,0,0-40.879-16.07,60.228,60.228,0,0,0-60.145,60.145,40.106,40.106,0,0,1-.281,5.207,5.614,5.614,0,0,0,5.152,6.105,5.769,5.769,0,0,0,6.215-5.1c.168-2.07.281-4.145.281-6.273a48.873,48.873,0,0,1,48.832-48.832,48.034,48.034,0,0,1,33.1,13.047,47.035,47.035,0,0,1,12.879,19.488,48.167,48.167,0,0,1,2.8,16.3,187.623,187.623,0,0,1-14.84,73.641V242.2a5.137,5.137,0,0,0,1.566.281,6,6,0,0,0,4.313-1.906Z" fill="#fff"/>
    <path id="Path_3" data-name="Path 3" d="M270.76,186.7a5.638,5.638,0,0,0-7.559,2.633,74.505,74.505,0,0,1-8.961,14.281,5.688,5.688,0,0,0,4.48,9.184,5.727,5.727,0,0,0,4.48-2.129,89.848,89.848,0,0,0,10.3-16.406,5.739,5.739,0,0,0-2.746-7.562Z" fill="#fff"/>
    <path id="Path_4" data-name="Path 4" d="M365.9,178.7v27.945a182.157,182.157,0,0,0,5.152-21.336A5.717,5.717,0,0,0,366.4,178.7c-.168.113-.277,0-.5,0Z" fill="#fff"/>
    <path id="Path_5" data-name="Path 5" d="M367.92,164.14a5.736,5.736,0,0,0,5.938-5.434c.055-1.961.055-3.863.055-5.879a42,42,0,0,0-84,0c0,1.848-.113,3.641-.168,5.434a98.347,98.347,0,0,1-4.367,24.527,102.007,102.007,0,0,1-18.648,34.441,5.627,5.627,0,0,0,4.367,9.242,5.929,5.929,0,0,0,4.367-2.016,112.549,112.549,0,0,0,20.719-38.246,17.814,17.814,0,0,0,.84-3.078v-5.207a34.422,34.422,0,0,1,3.7-15.512l.055-.055c.113-1.121.168-2.3.281-3.473.113-2.016.168-3.977.168-5.992a30.633,30.633,0,1,1,61.266,0c0,1.848,0,3.527-.055,5.32a5.811,5.811,0,0,0,5.488,5.926Z" fill="#fff"/>
    <path id="Path_6" data-name="Path 6" d="M331.97,128.97a23.886,23.886,0,0,0-23.855,23.742,33.152,33.152,0,0,1,14.449-8.008,12.321,12.321,0,0,1,19.094.336h.055a33.37,33.37,0,0,1,14.055,8.457v-.672a23.787,23.787,0,0,0-23.8-23.855Z" fill="#fff"/>
    <path id="Path_7" data-name="Path 7" d="M282.24,235.76a5.543,5.543,0,0,0,3.586,1.289,5.746,5.746,0,0,0,4.426-2.07,106.379,106.379,0,0,0,6.832-9.3v-22.9a117.183,117.183,0,0,1-15.625,25.031,5.668,5.668,0,0,0,.781,7.949Z" fill="#fff"/>
    <path id="Path_8" data-name="Path 8" d="M245.62,194.66l.055.055a5.889,5.889,0,0,0,3.023.84,5.487,5.487,0,0,0,2.3-.5.783.783,0,0,1,.223-.168,5.494,5.494,0,0,0,.559-.391,5.351,5.351,0,0,0,1.4-1.344c.055-.113.223-.168.281-.281a72.259,72.259,0,0,0,9.52-23.238,74.083,74.083,0,0,0,1.961-16.855A66.871,66.871,0,0,1,381.7,108.141a5.671,5.671,0,0,0,8.457-7.559,78.254,78.254,0,0,0-136.641,52.192,62.576,62.576,0,0,1-1.68,14.336,57.462,57.462,0,0,1-2.406,7.84,84.443,84.443,0,0,1-3.023-22.23,85.432,85.432,0,0,1,14.727-48.047,5.684,5.684,0,1,0-9.406-6.383,96.652,96.652,0,0,0-16.688,54.375,95.112,95.112,0,0,0,8.4,39.367c.055.113.168.168.223.281a5.838,5.838,0,0,0,1.961,2.348Z" fill="#fff"/>
    <path id="Path_9" data-name="Path 9" d="M285.6,81.145a84.255,84.255,0,0,1,46.367-13.777,85.508,85.508,0,0,1,80.641,57.121,5.7,5.7,0,0,0,5.375,3.809,5.962,5.962,0,0,0,1.9-.336,5.639,5.639,0,0,0,3.473-7.223A97.027,97.027,0,0,0,331.967,56a95.81,95.81,0,0,0-52.586,15.625,5.686,5.686,0,0,0,6.219,9.52Z" fill="#fff"/>
    <path id="Path_10" data-name="Path 10" d="M452.31,315.73c-.055,0-.055-.055-.113-.055a22.818,22.818,0,0,0-9.969-2.3A22.569,22.569,0,0,0,428,318.418v-3.473A22.657,22.657,0,0,0,391.1,297.3V286.441c0-4.48-2.687-8.734-7.391-11.7a26.333,26.333,0,0,0-6.887-2.91,31.746,31.746,0,0,0-8.4-1.062,29.744,29.744,0,0,0-13.383,2.969,6.277,6.277,0,0,0-.84.449l-.008-96.324a22.353,22.353,0,0,0-6.664-16.016,22.65,22.65,0,0,0-38.7,16.016v170.57l-9.855-18.984a28.977,28.977,0,0,0-25.762-15.68,28.968,28.968,0,0,0-25.7,42.336l52.3,100.86a22.9,22.9,0,0,0,1.512,2.465,87.389,87.389,0,0,0,152.711-.671.192.192,0,0,0,.055-.113v-.055a87.6,87.6,0,0,0,10.809-42.113V336.005a22.683,22.683,0,0,0-12.6-20.274Z" fill="#fff"/>
  </g>
</svg>
