<svg xmlns="http://www.w3.org/2000/svg" width="284.367" height="276.228" viewBox="0 0 284.367 276.228">
  <g id="Loan" transform="translate(-84.189 -21.84)">
    <path id="Path_4" data-name="Path 4" d="M341.667,343.067c-8.087,3-20.965,6.291-35.341,9.585-5.091,8.386-14.376,15.275-29.053,17.972a110.775,110.775,0,0,1-11.382,1.2c-10.183.3-22.164-.9-35.341-1.8-.9,0-1.8-.3-2.7-.3a6.734,6.734,0,0,1-6.291-5.99c-.3-4.193,3-7.488,6.888-6.888.9,0,2.1.3,3,.3,17.073,1.5,33.246,3,43.429.9,18.87-3.594,24.26-14.976,23.063-24.561-.9-7.787-6.888-15.275-16.173-14.677-13.179.9-28.754,0-44.028-1.2-17.372-1.2-35.043-1.8-47.622-.3-14.077,1.5-42.531,11.979-67.689,29.053-12.28,8.386-26.057,18.27-34.443,24.561a9.2,9.2,0,0,0-1.8,13.179l36.54,47.323c3,4.193,8.986,4.793,13.179,1.8l13.477-10.484a12.488,12.488,0,0,1,11.081-2.1c24.561,7.787,50.916,12.878,67.989,13.779,37.439,1.8,109.621-42.531,130.287-56.907,20.66-14.079,5.685-43.132-17.077-34.447Z" transform="translate(0 -137.028)" fill="#fff"/>
    <path id="Path_5" data-name="Path 5" d="M332.53,156.021a67.09,67.09,0,1,0-67.09-67.09A67.172,67.172,0,0,0,332.53,156.021ZM326.839,55.685V47.3a1.416,1.416,0,0,1,1.5-1.5h8.087a1.416,1.416,0,0,1,1.5,1.5v8.087c8.386.6,15.275,6.888,15.874,15.275a1.677,1.677,0,0,1-1.5,1.8h-8.386c-.6,0-1.5-.6-1.5-1.2a5.54,5.54,0,0,0-5.691-4.492h-7.189a8.707,8.707,0,0,0-8.685,7.189,8.106,8.106,0,0,0,8.087,8.986h6.291a19.607,19.607,0,0,1,19.467,21.565c-.9,8.986-8.087,15.874-17.073,17.372v8.386a1.416,1.416,0,0,1-1.5,1.5l-7.486,0a1.416,1.416,0,0,1-1.5-1.5v-8.087c-8.386-.6-15.275-6.888-15.874-15.275a1.677,1.677,0,0,1,1.5-1.8h8.386c.6,0,1.5.6,1.5,1.2a5.54,5.54,0,0,0,5.691,4.492h7.189a8.7,8.7,0,0,0,8.685-7.488,8.106,8.106,0,0,0-8.087-8.986h-5.39c-10.183,0-19.467-7.488-20.366-17.671-1.5-10.482,6.286-19.766,16.469-20.963Z" transform="translate(-84.311)" fill="#fff"/>
  </g>
</svg>
