<svg xmlns="http://www.w3.org/2000/svg" width="208.196" height="208.197" viewBox="0 0 208.196 208.197">
  <g id="Group_38" data-name="Group 38" transform="translate(-14792.56 -2296)">
    <path id="Path_251" data-name="Path 251" d="M298.171,197.043a5.188,5.188,0,1,0,0-10.375,41.5,41.5,0,1,0,41.5,41.5,5.188,5.188,0,1,0-10.375,0,31.127,31.127,0,1,1-31.128-31.128Z" transform="translate(14598.834 2171.578)" fill="#fff"/>
    <path id="Path_252" data-name="Path 252" d="M318.553,119.626a5.192,5.192,0,0,0-9.91,3.1,93.739,93.739,0,1,1-61.367-61.367,5.188,5.188,0,1,0,3.1-9.9,104.1,104.1,0,1,0,68.17,68.168Z" transform="translate(14677.438 2249.311)" fill="#fff"/>
    <path id="Path_253" data-name="Path 253" d="M269.181,122.575a5.614,5.614,0,0,0-5.189-5.643c-1.551-.135-3.1-.262-4.692-.262A72.628,72.628,0,1,0,331.93,189.3a45.946,45.946,0,0,0-.344-5.614,5.226,5.226,0,1,0-10.254,1.819c.111,1.258.222,2.508.222,3.8A62.256,62.256,0,1,1,259.3,127.043c1.287,0,2.533.116,3.79.222l.973.087a4.905,4.905,0,0,0,5.117-4.779Z" transform="translate(14637.705 2210.449)" fill="#fff"/>
    <path id="Path_254" data-name="Path 254" d="M374.591,106.318v18.6l-34.8,34.794a5.189,5.189,0,1,0,7.337,7.337l34.794-34.8h18.6a5.19,5.19,0,0,0,3.669-1.52L435.327,99.61a5.188,5.188,0,0,0-3.668-8.855H416.094V75.191a5.188,5.188,0,0,0-8.855-3.668L376.111,102.65a5.19,5.19,0,0,0-1.52,3.669Zm10.375,2.149,20.752-20.752v8.227a5.183,5.183,0,0,0,5.189,5.189h8.228l-20.752,20.752H384.967Z" transform="translate(14553.541 2236.364)" fill="#fff"/>
  </g>
</svg>
