<svg xmlns="http://www.w3.org/2000/svg" width="271.023" height="163.996" viewBox="0 0 271.023 163.996">
  <g id="Group_42" data-name="Group 42" transform="translate(-10441.988 -2974.504)">
    <path id="Path_270" data-name="Path 270" d="M102.459,291.482H364.569a4.446,4.446,0,0,0,4.457-4.457l0-116.979a4.446,4.446,0,0,0-4.457-4.457h-8.341L367.7,154.118a4.435,4.435,0,0,0,0-6.293L348.669,128.8a4.436,4.436,0,0,0-6.293,0l-36.8,36.794H102.46A4.446,4.446,0,0,0,98,170.047V287.058a4.439,4.439,0,0,0,4.457,4.425Zm243.05-153.261,12.737,12.737-11.321,11.321-12.737-12.737Zm-17.584,17.613,12.737,12.737-63.742,63.742A30.78,30.78,0,0,0,264.3,219.457Zm-57.661,83.137-4.757,4.757-20.535,7.8,7.8-20.535,4.818-4.818c7.708,2.8,11.26,9.334,12.675,12.8Zm-163.381-64.5H296.669l-50.887,50.887a4.544,4.544,0,0,0-1.023,1.565l-11.653,30.681a4.391,4.391,0,0,0,1.023,4.728,4.448,4.448,0,0,0,3.132,1.294,4.027,4.027,0,0,0,1.565-.3l30.681-11.653a4.142,4.142,0,0,0,1.565-1.023l76.244-76.179h12.766V282.6h-253.2Z" transform="translate(10343.985 2847.017)" fill="#fff"/>
    <path id="Path_271" data-name="Path 271" d="M151.058,263.1H254.61a4.457,4.457,0,0,0,0-8.914H151.058a4.457,4.457,0,0,0,0,8.914Z" transform="translate(10321.518 2788.444)" fill="#fff"/>
    <path id="Path_272" data-name="Path 272" d="M259.036,297.838a4.446,4.446,0,0,0-4.457-4.457H151.059a4.457,4.457,0,1,0,0,8.914H254.611a4.46,4.46,0,0,0,4.425-4.457Z" transform="translate(10321.518 2770.322)" fill="#fff"/>
    <path id="Path_273" data-name="Path 273" d="M211.106,375.37H151.068a4.457,4.457,0,1,0,0,8.914h60.038a4.457,4.457,0,1,0,0-8.914Z" transform="translate(10321.513 2732.417)" fill="#fff"/>
    <path id="Path_274" data-name="Path 274" d="M493.258,375.37h-60.07a4.457,4.457,0,1,0,0,8.914h60.07a4.457,4.457,0,1,0,0-8.914Z" transform="translate(10191.085 2732.417)" fill="#fff"/>
  </g>
</svg>
