<svg xmlns="http://www.w3.org/2000/svg" width="390.358" height="347.08" viewBox="0 0 390.358 347.08">
  <g id="noun-request-5024794" transform="translate(-150.837 -104.069)">
    <path id="Path_290" data-name="Path 290" d="M531.77,319.2a39.894,39.894,0,0,0-23.684-13.535c-9.449-1.516-19.832,0-31.617,4.9l-79.918,31.383a38.639,38.639,0,0,0-1.867-11.082,39.315,39.315,0,0,0-21.465-23.8c-1.051-.465-37.566-15.4-37.566-15.4L273.821,266a34.885,34.885,0,0,0-14-2.8,69.863,69.863,0,0,0-49.234,20.3,67.758,67.758,0,0,0-8.285,10.035l-45.965,28.7a12.064,12.064,0,0,0-5.367,11.9l13.883,80.617a11.623,11.623,0,0,0,5.016,7.7,11.9,11.9,0,0,0,9.1,1.633l32.9-7.816C243.95,408.68,280,423.379,312.548,436.8L336,446.481a58.555,58.555,0,0,0,22.867,4.668c12.016,0,23.918-3.734,35.117-10.965l127.17-64.633c5.133-2.566,11.668-6.648,15.984-14.7,7-12.949,4.785-29.75-5.367-41.648ZM516.6,349.766c-.934,1.633-2.215,3.035-5.949,4.9l-128.1,65.1c-13.066,8.4-25.316,10.035-37.566,5.016l-24.148-10.035c-27.883-11.434-58.8-24.035-90.066-24.035a101.919,101.919,0,0,0-24.266,2.8l-20.766,4.9-10.5-60.668,41.535-26.016a11.412,11.412,0,0,0,3.734-3.734,46.145,46.145,0,0,1,39.2-21.586,12.657,12.657,0,0,1,4.9.934l61.949,25.785,37.332,15.285a15.9,15.9,0,0,1,8.4,9.566,11.476,11.476,0,0,1,.7,4.9,25.991,25.991,0,0,1-1.051,5.832,17.071,17.071,0,0,1-3.383,5.133l-.352.352a15.642,15.642,0,0,1-16.449,2.918l-52.617-21.816a11.69,11.69,0,1,0-8.984,21.586L342.772,378.7a39.345,39.345,0,0,0,39.9-6.184l102.2-40.133c7.816-3.148,14.117-4.316,19.133-3.5a16.431,16.431,0,0,1,9.684,5.715c3.852,4.551,4.9,10.965,2.566,15.4Z" fill="#fff"/>
    <path id="Path_291" data-name="Path 291" d="M349.42,218.87a11.46,11.46,0,0,0,8.285,3.383,11.964,11.964,0,0,0,8.285-3.383L415.455,169.4a11.631,11.631,0,0,0-16.449-16.449l-29.633,29.633V115.737a11.61,11.61,0,1,0-23.219,0v66.852l-29.516-29.4a11.631,11.631,0,1,0-16.449,16.449l49.352,49.352Z" fill="#fff"/>
  </g>
</svg>
