<svg id="Layer_1" data-name="Layer 1" xmlns="http://www.w3.org/2000/svg" viewBox="0 0 357.07 543"><defs><style>.cls-1{fill:#fff;}</style></defs><title>Resignation</title><path class="cls-1" d="M527.8,476a234.78,234.78,0,0,0-9.1-44.7,240.9,240.9,0,0,0-17.6-35.2A235.72,235.72,0,0,0,460,346V213.8h50.9a17.07,17.07,0,0,0,17-17V154.4A42.34,42.34,0,0,0,485.5,112H213.9a42.34,42.34,0,0,0-42.4,42.4V510.8a17.07,17.07,0,0,0,17,17H339.9a425.63,425.63,0,0,0,9.8,120.7,8.49,8.49,0,0,0,8.5,6.5H485.5a8.55,8.55,0,0,0,8.5-7.6,422.78,422.78,0,0,1,8.5-49.9,415.78,415.78,0,0,1,17-54.6,152.29,152.29,0,0,0,8.3-66.9Zm-17-321.6v42.4H459.9V154.4a25.45,25.45,0,0,1,12.7-22,25.77,25.77,0,0,1,25.5,0,25.24,25.24,0,0,1,12.7,22ZM188.4,510.8V154.4a25.61,25.61,0,0,1,25.5-25.5H451.5a41.84,41.84,0,0,0-8.5,25.5V500.8a18.4,18.4,0,0,1-4.4,12.3,18.15,18.15,0,0,1-11.6,6.1,16.76,16.76,0,0,1-12.6-4.6,17,17,0,0,1-5.3-12.3V401.9a34.6,34.6,0,0,0-9-24.1A35,35,0,0,0,377,366.5a34.15,34.15,0,0,0-25.2,9.3,33.8,33.8,0,0,0-10.6,24.7H239.3a8.5,8.5,0,1,0,0,17H341.1V443H264.7a8.5,8.5,0,0,0,0,17h76.4v50.9Zm314.5,25.9h0a434.06,434.06,0,0,0-17,57,392,392,0,0,0-8.1,44.3H364.9a419.28,419.28,0,0,1-6.8-43.3,411,411,0,0,1-.8-71.9,6.56,6.56,0,0,0,.8-3.6,8.85,8.85,0,0,0,0-2.3V400.5A16.93,16.93,0,0,1,376,383.6a18.15,18.15,0,0,1,11.6,6.1A17.45,17.45,0,0,1,392,402V502.4A33.74,33.74,0,0,0,402.6,527a33.3,33.3,0,0,0,25.5,9.2A34.58,34.58,0,0,0,459.9,501V369.8a214.43,214.43,0,0,1,42.4,67.1,212.83,212.83,0,0,1,8.5,41.1,130.49,130.49,0,0,1-7.9,58.7Z" transform="translate(-171.5 -112)"/><path class="cls-1" d="M315.7,341.1a84.81,84.81,0,0,0,57.8-146.7V194H373a84.85,84.85,0,1,0-57.3,147.1Zm0-17A67.81,67.81,0,0,1,274,309.7l93.3-97.3h0a68.19,68.19,0,0,1,16,47.6,67.89,67.89,0,0,1-67.6,64.1Zm0-135.8a67.31,67.31,0,0,1,39.2,12.6l-92.8,96.8a68,68,0,0,1,53.6-109.4Z" transform="translate(-171.5 -112)"/></svg>