<svg xmlns="http://www.w3.org/2000/svg" width="215.968" height="251.31" viewBox="0 0 215.968 251.31">
  <g id="Group_39" data-name="Group 39" transform="translate(373.673 -1791)">
    <path id="Path_258" data-name="Path 258" d="M413.272,207.421H370.811q1-.781,1.9-1.557a12.82,12.82,0,0,0,1.352-18.129,11.655,11.655,0,0,0-9.119-3.988c-5.964,0-12.415,3.392-18.107,6.386a57.529,57.529,0,0,1-6.031,2.917c-3.52,1.276-7.159,2.594-10.415,4a86.1,86.1,0,0,0-19.017,9.389c-5.7,3.56-9.135,5.71-16.834,5.71a5.792,5.792,0,0,0-5.794,5.778v36.2a5.8,5.8,0,0,0,5.794,5.783c2.119,0,5.731,1.793,9.259,3.545,6.008,2.964,13.484,6.654,22.241,6.654h13.493c.193.016.384.025.573.025H357a12.845,12.845,0,0,0,12.4-15,12.971,12.971,0,0,0,5.147-11.85,12.943,12.943,0,0,0,6.223-10.635h32.5a12.618,12.618,0,1,0,0-25.229Zm0,17.374h-42.9l2.163,5.391a5.4,5.4,0,0,1,.394,2.005,4.94,4.94,0,0,1-3.834,4.91l-4.844.982,2.051,4.5a5.2,5.2,0,0,1,.475,2.161,4.991,4.991,0,0,1-3.026,4.635l-4.64,1.49,2.09,4.167a5.057,5.057,0,0,1,.531,2.254,4.874,4.874,0,0,1-4.73,5l-30.965-.025c-6.926,0-12.944-2.971-18.785-5.853-3.73-1.855-7.289-3.622-10.655-4.172v-32.28c8.627-.412,13.435-3.417,18.973-6.877a79.054,79.054,0,0,1,17.518-8.649l.287-.11c3.068-1.332,6.644-2.628,10.129-3.892a61.827,61.827,0,0,0,6.986-3.339c4.644-2.444,10.425-5.485,14.45-5.485a3.762,3.762,0,0,1,3.175,1.269,4.963,4.963,0,0,1-.526,7.038,73.77,73.77,0,0,1-11.856,8.01l-13.192,7.356h70.731a4.765,4.765,0,0,1,5.056,4.661,4.852,4.852,0,0,1-5.056,4.861Z" transform="translate(-583.885 1689.714)" fill="#fff"/>
    <path id="Path_255" data-name="Path 255" d="M313.457,87.711a3.927,3.927,0,0,0,3.927-3.927V50.293c0-12.254-5.871-18.21-17.951-18.21H259.138a3.927,3.927,0,1,0,0,7.853h40.3c7.738,0,10.1,2.419,10.1,10.357V83.785A3.927,3.927,0,0,0,313.457,87.711Z" transform="translate(-565.4 1773.316)" fill="#fff"/>
    <path id="Path_256" data-name="Path 256" d="M206.25,292.677a3.918,3.918,0,0,0,1.132,2.759,28.809,28.809,0,0,1,0,10.189,3.927,3.927,0,0,0,2.794,6.686c4.942,0,5.513-6.723,5.513-11.78s-.571-11.78-5.513-11.78a3.927,3.927,0,0,0-3.927,3.927Z" transform="translate(-538.411 1631.833)" fill="#fff"/>
    <path id="Path_257" data-name="Path 257" d="M247.259,198.042a13.862,13.862,0,0,1-13.686,14H180.506V66.4c0-11.894-8.258-27.084-18.449-33.933L125.437,7.853H233.573a13.862,13.862,0,0,1,13.686,14V81.613c2.421-1.273,5.064-2.626,7.853-3.816V21.853A21.694,21.694,0,0,0,233.573,0H113.751V0l0,0V221.072l48.059,27.084a17.251,17.251,0,0,0,9.121,3.152c5.712,0,9.573-4.549,9.573-12.627V219.894h53.067a21.7,21.7,0,0,0,21.539-21.855V176.7h-7.854Zm-74.608,40.642c0,.487-.047,4.774-1.72,4.774-.577,0-2.207-.184-4.861-1.9L121.6,216.485V14.74l36.072,24.243c7.978,5.362,14.976,18.173,14.976,27.415Z" transform="translate(-487.422 1791.002)" fill="#fff"/>
  </g>
</svg>
